<?xml version="1.0" encoding="UTF-8"?>
<svg xmlns="http://www.w3.org/2000/svg" xmlns:xlink="http://www.w3.org/1999/xlink" width="576pt" height="396pt" viewBox="0 0 576 396" version="1.1">
<defs>
<clipPath id="clip1">
  <path d="M 7.722656 4.980469 L 284.019531 4.980469 L 284.019531 389.277344 L 7.722656 389.277344 Z M 7.722656 4.980469 "/>
</clipPath>
<clipPath id="clip2">
  <path d="M 295.722656 58.980469 L 572.019531 58.980469 L 572.019531 335.277344 L 295.722656 335.277344 Z M 295.722656 58.980469 "/>
</clipPath>
</defs>
<g id="surface57">
<rect x="0" y="0" width="576" height="396" style="fill:rgb(100%,100%,100%);fill-opacity:1;stroke:none;"/>
<g clip-path="url(#clip1)" clip-rule="nonzero">
<path style=" stroke:none;fill-rule:nonzero;fill:rgb(0%,0%,1.568627%);fill-opacity:1;" d="M 10.4375 370.855469 L 26.738281 370.855469 L 26.738281 166.667969 L 10.4375 166.667969 Z M 10.4375 370.855469 "/>
<path style=" stroke:none;fill-rule:nonzero;fill:rgb(5.098039%,3.137255%,16.470588%);fill-opacity:1;" d="M 28.550781 370.855469 L 44.851563 370.855469 L 44.851563 270.980469 L 28.550781 270.980469 Z M 28.550781 370.855469 "/>
<path style=" stroke:none;fill-rule:nonzero;fill:rgb(15.686275%,4.313725%,32.941176%);fill-opacity:1;" d="M 46.660156 370.855469 L 62.960938 370.855469 L 62.960938 218.453125 L 46.660156 218.453125 Z M 46.660156 370.855469 "/>
<path style=" stroke:none;fill-rule:nonzero;fill:rgb(28.235294%,4.313725%,41.568627%);fill-opacity:1;" d="M 64.773438 370.855469 L 81.074219 370.855469 L 81.074219 162.226563 L 64.773438 162.226563 Z M 64.773438 370.855469 "/>
<path style=" stroke:none;fill-rule:nonzero;fill:rgb(39.607843%,8.235294%,43.137255%);fill-opacity:1;" d="M 82.882813 370.855469 L 99.183594 370.855469 L 99.183594 140.773438 L 82.882813 140.773438 Z M 82.882813 370.855469 "/>
<path style=" stroke:none;fill-rule:nonzero;fill:rgb(50.980392%,12.54902%,42.352941%);fill-opacity:1;" d="M 100.996094 370.855469 L 117.296875 370.855469 L 117.296875 208.835938 L 100.996094 208.835938 Z M 100.996094 370.855469 "/>
<path style=" stroke:none;fill-rule:nonzero;fill:rgb(62.352941%,16.470588%,38.823529%);fill-opacity:1;" d="M 119.109375 370.855469 L 135.410156 370.855469 L 135.410156 22.402344 L 119.109375 22.402344 Z M 119.109375 370.855469 "/>
<path style=" stroke:none;fill-rule:nonzero;fill:rgb(73.333333%,21.568627%,32.941176%);fill-opacity:1;" d="M 137.21875 370.855469 L 153.519531 370.855469 L 153.519531 279.859375 L 137.21875 279.859375 Z M 137.21875 370.855469 "/>
<path style=" stroke:none;fill-rule:nonzero;fill:rgb(83.137255%,28.235294%,25.882353%);fill-opacity:1;" d="M 155.332031 370.855469 L 171.632813 370.855469 L 171.632813 268.019531 L 155.332031 268.019531 Z M 155.332031 370.855469 "/>
<path style=" stroke:none;fill-rule:nonzero;fill:rgb(90.980392%,37.647059%,17.647059%);fill-opacity:1;" d="M 173.441406 370.855469 L 189.742188 370.855469 L 189.742188 226.589844 L 173.441406 226.589844 Z M 173.441406 370.855469 "/>
<path style=" stroke:none;fill-rule:nonzero;fill:rgb(96.078431%,49.019608%,8.235294%);fill-opacity:1;" d="M 191.554688 370.855469 L 207.855469 370.855469 L 207.855469 242.867188 L 191.554688 242.867188 Z M 191.554688 370.855469 "/>
<path style=" stroke:none;fill-rule:nonzero;fill:rgb(98.431373%,61.960784%,2.745098%);fill-opacity:1;" d="M 209.667969 370.855469 L 225.96875 370.855469 L 225.96875 251.003906 L 209.667969 251.003906 Z M 209.667969 370.855469 "/>
<path style=" stroke:none;fill-rule:nonzero;fill:rgb(98.039216%,75.686275%,15.294118%);fill-opacity:1;" d="M 227.777344 370.855469 L 244.078125 370.855469 L 244.078125 90.464844 L 227.777344 90.464844 Z M 227.777344 370.855469 "/>
<path style=" stroke:none;fill-rule:nonzero;fill:rgb(95.294118%,89.803922%,36.078431%);fill-opacity:1;" d="M 245.890625 370.855469 L 262.191406 370.855469 L 262.191406 191.082031 L 245.890625 191.082031 Z M 245.890625 370.855469 "/>
<path style=" stroke:none;fill-rule:nonzero;fill:rgb(98.823529%,100%,64.313725%);fill-opacity:1;" d="M 264 370.855469 L 280.300781 370.855469 L 280.300781 138.554688 L 264 138.554688 Z M 264 370.855469 "/>
</g>
<g clip-path="url(#clip2)" clip-rule="nonzero">
<path style=" stroke:none;fill-rule:nonzero;fill:rgb(98.823529%,100%,64.313725%);fill-opacity:1;" d="M 433.371094 196.628906 L 435.335938 193.378906 L 437.300781 190.132813 L 439.265625 186.882813 L 441.226563 183.632813 L 449.085938 170.632813 L 451.050781 167.386719 L 462.839844 147.886719 L 464.804688 144.640625 L 476.59375 125.140625 L 478.558594 121.894531 L 480.523438 118.644531 L 482.484375 115.394531 L 490.34375 102.394531 L 487.109375 100.515625 L 483.8125 98.742188 L 480.457031 97.085938 L 477.046875 95.542969 L 473.585938 94.117188 L 470.082031 92.808594 L 466.53125 91.621094 L 462.945313 90.558594 L 459.324219 89.613281 L 455.671875 88.792969 L 451.992188 88.097656 L 448.292969 87.527344 L 444.578125 87.082031 L 440.847656 86.765625 L 437.113281 86.574219 L 433.371094 86.511719 Z M 433.371094 196.628906 "/>
<path style=" stroke:none;fill-rule:nonzero;fill:rgb(95.294118%,89.803922%,36.078431%);fill-opacity:1;" d="M 433.371094 196.628906 L 436.492188 194.46875 L 439.609375 192.304688 L 452.09375 183.648438 L 455.214844 181.488281 L 467.699219 172.832031 L 470.820313 170.671875 L 473.9375 168.507813 L 483.300781 162.015625 L 486.421875 159.855469 L 498.90625 151.199219 L 502.027344 149.039063 L 505.148438 146.875 L 508.265625 144.710938 L 514.507813 140.382813 L 517.628906 138.222656 L 523.871094 133.894531 L 521.617188 130.757813 L 519.25 127.707031 L 516.78125 124.738281 L 514.210938 121.855469 L 511.539063 119.066406 L 508.769531 116.375 L 505.910156 113.78125 L 502.960938 111.289063 L 499.925781 108.902344 L 496.808594 106.621094 L 493.613281 104.453125 L 490.34375 102.394531 L 482.484375 115.394531 L 480.523438 118.644531 L 478.558594 121.894531 L 476.59375 125.140625 L 464.804688 144.640625 L 462.839844 147.886719 L 451.050781 167.386719 L 449.085938 170.632813 L 441.226563 183.632813 L 439.265625 186.882813 L 437.300781 190.132813 L 435.335938 193.378906 Z M 433.371094 196.628906 "/>
<path style=" stroke:none;fill-rule:nonzero;fill:rgb(98.039216%,75.686275%,15.294118%);fill-opacity:1;" d="M 433.371094 196.628906 L 437.164063 196.820313 L 440.953125 197.011719 L 448.539063 197.394531 L 452.332031 197.582031 L 463.710938 198.15625 L 467.5 198.347656 L 471.292969 198.535156 L 486.464844 199.300781 L 490.257813 199.488281 L 494.046875 199.679688 L 505.425781 200.253906 L 509.21875 200.441406 L 516.804688 200.824219 L 520.59375 201.015625 L 524.386719 201.207031 L 528.179688 201.394531 L 543.351563 202.160156 L 543.476563 198.355469 L 543.46875 194.550781 L 543.332031 190.75 L 543.0625 186.957031 L 542.664063 183.171875 L 542.132813 179.40625 L 541.472656 175.660156 L 540.683594 171.9375 L 539.769531 168.246094 L 538.722656 164.589844 L 537.554688 160.96875 L 536.261719 157.390625 L 534.84375 153.863281 L 533.308594 150.382813 L 531.648438 146.957031 L 529.875 143.59375 L 527.984375 140.292969 L 525.984375 137.058594 L 523.871094 133.894531 L 517.628906 138.222656 L 514.507813 140.382813 L 508.265625 144.710938 L 505.148438 146.875 L 502.027344 149.039063 L 498.90625 151.199219 L 486.421875 159.855469 L 483.300781 162.015625 L 473.9375 168.507813 L 470.820313 170.671875 L 467.699219 172.832031 L 455.214844 181.488281 L 452.09375 183.648438 L 439.609375 192.304688 L 436.492188 194.46875 Z M 433.371094 196.628906 "/>
<path style=" stroke:none;fill-rule:nonzero;fill:rgb(98.431373%,61.960784%,2.745098%);fill-opacity:1;" d="M 433.371094 196.628906 L 440.550781 199.097656 L 444.144531 200.328125 L 447.734375 201.5625 L 451.328125 202.796875 L 454.917969 204.03125 L 458.507813 205.261719 L 462.101563 206.496094 L 465.691406 207.730469 L 469.285156 208.964844 L 472.875 210.195313 L 476.464844 211.429688 L 480.058594 212.664063 L 483.648438 213.894531 L 487.238281 215.128906 L 490.832031 216.363281 L 494.421875 217.597656 L 498.015625 218.828125 L 505.195313 221.296875 L 508.789063 222.527344 L 512.378906 223.761719 L 515.972656 224.996094 L 519.5625 226.230469 L 523.152344 227.460938 L 526.746094 228.695313 L 530.335938 229.929688 L 533.929688 231.160156 L 537.519531 232.394531 L 538.710938 228.722656 L 539.769531 225.007813 L 540.699219 221.261719 L 541.496094 217.480469 L 542.160156 213.675781 L 542.691406 209.851563 L 543.089844 206.011719 L 543.351563 202.160156 L 528.179688 201.394531 L 524.386719 201.207031 L 520.59375 201.015625 L 516.804688 200.824219 L 509.21875 200.441406 L 505.425781 200.253906 L 494.046875 199.679688 L 490.257813 199.488281 L 486.464844 199.300781 L 471.292969 198.535156 L 467.5 198.347656 L 463.710938 198.15625 L 452.332031 197.582031 L 448.539063 197.394531 L 440.953125 197.011719 L 437.164063 196.820313 Z M 433.371094 196.628906 "/>
<path style=" stroke:none;fill-rule:nonzero;fill:rgb(96.078431%,49.019608%,8.235294%);fill-opacity:1;" d="M 433.371094 196.628906 L 442.570313 203.34375 L 445.640625 205.582031 L 454.839844 212.296875 L 457.910156 214.535156 L 467.109375 221.25 L 470.179688 223.488281 L 479.378906 230.203125 L 482.449219 232.441406 L 485.515625 234.679688 L 488.582031 236.921875 L 491.648438 239.160156 L 494.71875 241.398438 L 503.917969 248.113281 L 506.988281 250.351563 L 516.1875 257.066406 L 519.257813 259.304688 L 522.324219 261.542969 L 524.691406 258.164063 L 526.929688 254.703125 L 529.039063 251.160156 L 531.015625 247.539063 L 532.851563 243.847656 L 534.550781 240.089844 L 536.105469 236.269531 L 537.519531 232.394531 L 533.929688 231.160156 L 530.335938 229.929688 L 526.746094 228.695313 L 523.152344 227.460938 L 519.5625 226.230469 L 515.972656 224.996094 L 512.378906 223.761719 L 508.789063 222.527344 L 505.195313 221.296875 L 498.015625 218.828125 L 494.421875 217.597656 L 490.832031 216.363281 L 487.238281 215.128906 L 483.648438 213.894531 L 480.058594 212.664063 L 476.464844 211.429688 L 472.875 210.195313 L 469.285156 208.964844 L 465.691406 207.730469 L 462.101563 206.496094 L 458.507813 205.261719 L 454.917969 204.03125 L 451.328125 202.796875 L 447.734375 201.5625 L 444.144531 200.328125 L 440.550781 199.097656 Z M 433.371094 196.628906 "/>
<path style=" stroke:none;fill-rule:nonzero;fill:rgb(90.980392%,37.647059%,17.647059%);fill-opacity:1;" d="M 433.371094 196.628906 L 441.980469 209.144531 L 444.132813 212.269531 L 454.894531 227.914063 L 457.046875 231.039063 L 465.65625 243.554688 L 467.808594 246.679688 L 478.570313 262.324219 L 480.722656 265.449219 L 482.875 268.578125 L 485.03125 271.707031 L 489.335938 277.964844 L 491.488281 281.089844 L 495.792969 287.347656 L 499.152344 284.941406 L 502.417969 282.414063 L 505.585938 279.761719 L 508.65625 276.992188 L 511.617188 274.113281 L 514.46875 271.125 L 517.207031 268.027344 L 519.824219 264.832031 L 522.324219 261.542969 L 519.257813 259.304688 L 516.1875 257.066406 L 506.988281 250.351563 L 503.917969 248.113281 L 494.71875 241.398438 L 491.648438 239.160156 L 488.582031 236.921875 L 485.515625 234.679688 L 482.449219 232.441406 L 479.378906 230.203125 L 470.179688 223.488281 L 467.109375 221.25 L 457.910156 214.535156 L 454.839844 212.296875 L 445.640625 205.582031 L 442.570313 203.34375 Z M 433.371094 196.628906 "/>
<path style=" stroke:none;fill-rule:nonzero;fill:rgb(83.137255%,28.235294%,25.882353%);fill-opacity:1;" d="M 433.371094 196.628906 L 434.714844 200.179688 L 436.058594 203.734375 L 437.402344 207.285156 L 438.75 210.835938 L 444.125 225.039063 L 445.472656 228.589844 L 448.160156 235.691406 L 449.503906 239.246094 L 450.851563 242.796875 L 456.226563 257 L 457.574219 260.550781 L 461.605469 271.203125 L 462.953125 274.753906 L 464.296875 278.308594 L 468.328125 288.960938 L 469.675781 292.511719 L 472.363281 299.613281 L 475.882813 298.210938 L 479.347656 296.691406 L 482.761719 295.050781 L 486.117188 293.292969 L 489.410156 291.421875 L 492.636719 289.441406 L 495.792969 287.347656 L 491.488281 281.089844 L 489.335938 277.964844 L 485.03125 271.707031 L 482.875 268.578125 L 480.722656 265.449219 L 478.570313 262.324219 L 467.808594 246.679688 L 465.65625 243.554688 L 457.046875 231.039063 L 454.894531 227.914063 L 444.132813 212.269531 L 441.980469 209.144531 Z M 433.371094 196.628906 "/>
<path style=" stroke:none;fill-rule:nonzero;fill:rgb(73.333333%,21.568627%,32.941176%);fill-opacity:1;" d="M 433.371094 196.628906 L 433.933594 200.386719 L 435.058594 207.894531 L 435.625 211.652344 L 436.75 219.160156 L 437.3125 222.917969 L 437.878906 226.671875 L 438.441406 230.425781 L 439.003906 234.183594 L 439.566406 237.9375 L 440.132813 241.691406 L 440.695313 245.449219 L 441.820313 252.957031 L 442.386719 256.710938 L 442.949219 260.46875 L 444.074219 267.976563 L 444.640625 271.734375 L 445.765625 279.242188 L 446.328125 283 L 446.894531 286.753906 L 447.457031 290.507813 L 448.019531 294.265625 L 448.582031 298.019531 L 449.148438 301.773438 L 449.710938 305.53125 L 453.566406 304.882813 L 457.394531 304.097656 L 461.195313 303.175781 L 464.960938 302.121094 L 468.683594 300.933594 L 472.363281 299.613281 L 469.675781 292.511719 L 468.328125 288.960938 L 464.296875 278.308594 L 462.953125 274.753906 L 461.605469 271.203125 L 457.574219 260.550781 L 456.226563 257 L 450.851563 242.796875 L 449.503906 239.246094 L 448.160156 235.691406 L 445.472656 228.589844 L 444.125 225.039063 L 438.75 210.835938 L 437.402344 207.285156 L 436.058594 203.734375 L 434.714844 200.179688 Z M 433.371094 196.628906 "/>
<path style=" stroke:none;fill-rule:nonzero;fill:rgb(62.352941%,16.470588%,38.823529%);fill-opacity:1;" d="M 433.371094 196.628906 L 431.023438 199.613281 L 428.671875 202.597656 L 419.28125 214.535156 L 416.929688 217.519531 L 414.582031 220.5 L 407.539063 229.453125 L 405.1875 232.4375 L 395.796875 244.375 L 393.449219 247.355469 L 391.097656 250.339844 L 381.707031 262.277344 L 379.355469 265.261719 L 374.660156 271.230469 L 372.3125 274.210938 L 367.617188 280.179688 L 365.265625 283.164063 L 368.246094 285.429688 L 371.300781 287.589844 L 374.429688 289.648438 L 377.625 291.597656 L 380.882813 293.4375 L 384.203125 295.164063 L 387.578125 296.777344 L 391.007813 298.277344 L 394.488281 299.65625 L 398.011719 300.917969 L 401.574219 302.058594 L 405.175781 303.078125 L 408.808594 303.976563 L 412.472656 304.746094 L 416.15625 305.394531 L 419.863281 305.917969 L 423.585938 306.3125 L 427.316406 306.582031 L 431.058594 306.726563 L 434.800781 306.738281 L 438.539063 306.628906 L 442.277344 306.386719 L 446 306.023438 L 449.710938 305.53125 L 449.148438 301.773438 L 448.582031 298.019531 L 448.019531 294.265625 L 447.457031 290.507813 L 446.894531 286.753906 L 446.328125 283 L 445.765625 279.242188 L 444.640625 271.734375 L 444.074219 267.976563 L 442.949219 260.46875 L 442.386719 256.710938 L 441.820313 252.957031 L 440.695313 245.449219 L 440.132813 241.691406 L 439.566406 237.9375 L 439.003906 234.183594 L 438.441406 230.425781 L 437.878906 226.671875 L 437.3125 222.917969 L 436.75 219.160156 L 435.625 211.652344 L 435.058594 207.894531 L 433.933594 200.386719 Z M 433.371094 196.628906 "/>
<path style=" stroke:none;fill-rule:nonzero;fill:rgb(50.980392%,12.54902%,42.352941%);fill-opacity:1;" d="M 433.371094 196.628906 L 430.082031 198.53125 L 420.226563 204.238281 L 416.9375 206.140625 L 410.367188 209.945313 L 407.078125 211.847656 L 397.222656 217.554688 L 393.933594 219.457031 L 390.648438 221.363281 L 387.363281 223.265625 L 384.074219 225.167969 L 377.503906 228.972656 L 374.214844 230.875 L 364.359375 236.582031 L 361.070313 238.484375 L 354.5 242.289063 L 351.210938 244.191406 L 341.355469 249.898438 L 338.066406 251.800781 L 340.027344 255.050781 L 342.09375 258.234375 L 344.273438 261.34375 L 346.558594 264.378906 L 348.945313 267.332031 L 351.433594 270.199219 L 354.015625 272.980469 L 356.695313 275.671875 L 359.464844 278.265625 L 362.324219 280.765625 L 365.265625 283.164063 L 367.617188 280.179688 L 372.3125 274.210938 L 374.660156 271.230469 L 379.355469 265.261719 L 381.707031 262.277344 L 391.097656 250.339844 L 393.449219 247.355469 L 395.796875 244.375 L 405.1875 232.4375 L 407.539063 229.453125 L 414.582031 220.5 L 416.929688 217.519531 L 419.28125 214.535156 L 428.671875 202.597656 L 431.023438 199.613281 Z M 433.371094 196.628906 "/>
<path style=" stroke:none;fill-rule:nonzero;fill:rgb(39.607843%,8.235294%,43.137255%);fill-opacity:1;" d="M 433.371094 196.628906 L 429.574219 196.578125 L 425.777344 196.523438 L 421.980469 196.472656 L 418.183594 196.417969 L 410.589844 196.316406 L 406.792969 196.261719 L 402.996094 196.210938 L 399.199219 196.15625 L 395.402344 196.105469 L 391.605469 196.050781 L 387.808594 196 L 384.011719 195.945313 L 380.214844 195.894531 L 376.417969 195.839844 L 372.621094 195.789063 L 368.824219 195.734375 L 365.027344 195.683594 L 361.230469 195.628906 L 357.433594 195.578125 L 353.636719 195.523438 L 346.042969 195.421875 L 342.246094 195.367188 L 338.449219 195.316406 L 334.652344 195.261719 L 330.855469 195.210938 L 327.058594 195.15625 L 323.261719 195.105469 L 323.277344 199.058594 L 323.4375 203.007813 L 323.734375 206.953125 L 324.175781 210.878906 L 324.757813 214.792969 L 325.480469 218.679688 L 326.34375 222.539063 L 327.339844 226.363281 L 328.476563 230.152344 L 329.746094 233.894531 L 331.152344 237.589844 L 332.6875 241.234375 L 334.355469 244.820313 L 336.148438 248.34375 L 338.066406 251.800781 L 341.355469 249.898438 L 351.210938 244.191406 L 354.5 242.289063 L 361.070313 238.484375 L 364.359375 236.582031 L 374.214844 230.875 L 377.503906 228.972656 L 384.074219 225.167969 L 387.363281 223.265625 L 390.648438 221.363281 L 393.933594 219.457031 L 397.222656 217.554688 L 407.078125 211.847656 L 410.367188 209.945313 L 416.9375 206.140625 L 420.226563 204.238281 L 430.082031 198.53125 Z M 433.371094 196.628906 "/>
<path style=" stroke:none;fill-rule:nonzero;fill:rgb(28.235294%,4.313725%,41.568627%);fill-opacity:1;" d="M 433.371094 196.628906 L 423.386719 191.144531 L 420.058594 189.320313 L 416.726563 187.492188 L 353.492188 152.757813 L 350.164063 150.933594 L 336.851563 143.621094 L 335.058594 147.019531 L 333.390625 150.476563 L 331.839844 153.992188 L 330.414063 157.558594 L 329.113281 161.175781 L 327.941406 164.832031 L 326.898438 168.527344 L 325.980469 172.257813 L 325.195313 176.019531 L 324.542969 179.804688 L 324.023438 183.609375 L 323.636719 187.433594 L 323.382813 191.265625 L 323.261719 195.105469 L 327.058594 195.15625 L 330.855469 195.210938 L 334.652344 195.261719 L 338.449219 195.316406 L 342.246094 195.367188 L 346.042969 195.421875 L 353.636719 195.523438 L 357.433594 195.578125 L 361.230469 195.628906 L 365.027344 195.683594 L 368.824219 195.734375 L 372.621094 195.789063 L 376.417969 195.839844 L 380.214844 195.894531 L 384.011719 195.945313 L 387.808594 196 L 391.605469 196.050781 L 395.402344 196.105469 L 399.199219 196.15625 L 402.996094 196.210938 L 406.792969 196.261719 L 410.589844 196.316406 L 418.183594 196.417969 L 421.980469 196.472656 L 425.777344 196.523438 L 429.574219 196.578125 Z M 433.371094 196.628906 "/>
<path style=" stroke:none;fill-rule:nonzero;fill:rgb(15.686275%,4.313725%,32.941176%);fill-opacity:1;" d="M 433.371094 196.628906 L 398.644531 156.378906 L 396.164063 153.5 L 383.761719 139.125 L 381.285156 136.25 L 361.441406 113.25 L 358.511719 115.867188 L 355.679688 118.589844 L 352.945313 121.410156 L 350.3125 124.328125 L 347.789063 127.335938 L 345.371094 130.429688 L 343.066406 133.613281 L 340.875 136.875 L 338.800781 140.210938 L 336.851563 143.621094 L 350.164063 150.933594 L 353.492188 152.757813 L 416.726563 187.492188 L 420.058594 189.320313 L 423.386719 191.144531 Z M 433.371094 196.628906 "/>
<path style=" stroke:none;fill-rule:nonzero;fill:rgb(5.098039%,3.137255%,16.470588%);fill-opacity:1;" d="M 433.371094 196.628906 L 431.625 193.257813 L 429.875 189.886719 L 422.890625 176.402344 L 421.144531 173.027344 L 419.394531 169.65625 L 410.664063 152.800781 L 408.914063 149.425781 L 398.4375 129.199219 L 396.6875 125.828125 L 394.941406 122.453125 L 387.957031 108.96875 L 386.207031 105.597656 L 384.460938 102.226563 L 382.714844 98.851563 L 378.945313 100.902344 L 375.257813 103.09375 L 371.65625 105.429688 L 368.152344 107.902344 L 364.742188 110.511719 L 361.441406 113.25 L 381.285156 136.25 L 383.761719 139.125 L 396.164063 153.5 L 398.644531 156.378906 Z M 433.371094 196.628906 "/>
<path style=" stroke:none;fill-rule:nonzero;fill:rgb(0%,0%,1.568627%);fill-opacity:1;" d="M 433.371094 196.628906 L 433.371094 86.511719 L 429.609375 86.574219 L 425.855469 86.769531 L 422.109375 87.089844 L 418.378906 87.535156 L 414.664063 88.113281 L 410.96875 88.8125 L 407.300781 89.640625 L 403.664063 90.59375 L 400.0625 91.667969 L 396.5 92.867188 L 392.976563 94.1875 L 389.503906 95.625 L 386.082031 97.179688 L 382.714844 98.851563 L 384.460938 102.226563 L 386.207031 105.597656 L 387.957031 108.96875 L 394.941406 122.453125 L 396.6875 125.828125 L 398.4375 129.199219 L 408.914063 149.425781 L 410.664063 152.800781 L 419.394531 169.65625 L 421.144531 173.027344 L 422.890625 176.402344 L 429.875 189.886719 L 431.625 193.257813 Z M 433.371094 196.628906 "/>
</g>
</g>
</svg>
