<?xml version="1.0" encoding="UTF-8"?>
<svg xmlns="http://www.w3.org/2000/svg" xmlns:xlink="http://www.w3.org/1999/xlink" width="576pt" height="396pt" viewBox="0 0 576 396" version="1.1">
<defs>
<clipPath id="clip1">
  <path d="M 7.722656 4.980469 L 284.019531 4.980469 L 284.019531 389.277344 L 7.722656 389.277344 Z M 7.722656 4.980469 "/>
</clipPath>
<clipPath id="clip2">
  <path d="M 295.722656 58.980469 L 572.019531 58.980469 L 572.019531 335.277344 L 295.722656 335.277344 Z M 295.722656 58.980469 "/>
</clipPath>
</defs>
<g id="surface52">
<rect x="0" y="0" width="576" height="396" style="fill:rgb(100%,100%,100%);fill-opacity:1;stroke:none;"/>
<g clip-path="url(#clip1)" clip-rule="nonzero">
<path style=" stroke:none;fill-rule:nonzero;fill:rgb(0%,0%,1.568627%);fill-opacity:1;" d="M 13.457031 370.855469 L 47.871094 370.855469 L 47.871094 166.667969 L 13.457031 166.667969 Z M 13.457031 370.855469 "/>
<path style=" stroke:none;fill-rule:nonzero;fill:rgb(11.764706%,4.705882%,26.666667%);fill-opacity:1;" d="M 51.691406 370.855469 L 86.105469 370.855469 L 86.105469 162.226563 L 51.691406 162.226563 Z M 51.691406 370.855469 "/>
<path style=" stroke:none;fill-rule:nonzero;fill:rgb(31.372549%,5.490196%,42.352941%);fill-opacity:1;" d="M 89.929688 370.855469 L 124.34375 370.855469 L 124.34375 140.773438 L 89.929688 140.773438 Z M 89.929688 370.855469 "/>
<path style=" stroke:none;fill-rule:nonzero;fill:rgb(49.803922%,11.764706%,42.352941%);fill-opacity:1;" d="M 128.164063 370.855469 L 162.578125 370.855469 L 162.578125 22.402344 L 128.164063 22.402344 Z M 128.164063 370.855469 "/>
<path style=" stroke:none;fill-rule:nonzero;fill:rgb(68.235294%,18.823529%,36.078431%);fill-opacity:1;" d="M 166.398438 370.855469 L 200.8125 370.855469 L 200.8125 90.464844 L 166.398438 90.464844 Z M 166.398438 370.855469 "/>
<path style=" stroke:none;fill-rule:nonzero;fill:rgb(84.705882%,29.803922%,24.313725%);fill-opacity:1;" d="M 204.636719 370.855469 L 239.050781 370.855469 L 239.050781 191.082031 L 204.636719 191.082031 Z M 204.636719 370.855469 "/>
<path style=" stroke:none;fill-rule:nonzero;fill:rgb(95.294118%,46.666667%,10.196078%);fill-opacity:1;" d="M 242.871094 370.855469 L 277.285156 370.855469 L 277.285156 138.554688 L 242.871094 138.554688 Z M 242.871094 370.855469 "/>
</g>
<g clip-path="url(#clip2)" clip-rule="nonzero">
<path style=" stroke:none;fill-rule:nonzero;fill:rgb(95.294118%,46.666667%,10.196078%);fill-opacity:1;" d="M 433.371094 196.628906 L 444.949219 186.800781 L 447.84375 184.339844 L 462.316406 172.054688 L 465.210938 169.59375 L 479.683594 157.308594 L 482.578125 154.847656 L 494.15625 145.019531 L 497.050781 142.558594 L 511.523438 130.273438 L 514.417969 127.8125 L 517.3125 125.355469 L 514.789063 122.488281 L 512.171875 119.710938 L 509.457031 117.027344 L 506.652344 114.4375 L 503.757813 111.945313 L 500.78125 109.554688 L 497.722656 107.269531 L 494.585938 105.09375 L 491.375 103.027344 L 488.09375 101.074219 L 484.75 99.234375 L 481.34375 97.511719 L 477.878906 95.90625 L 474.359375 94.425781 L 470.792969 93.066406 L 467.179688 91.828125 L 463.523438 90.71875 L 459.835938 89.738281 L 456.113281 88.886719 L 452.367188 88.160156 L 448.59375 87.570313 L 444.804688 87.105469 L 441 86.777344 L 437.1875 86.578125 L 433.371094 86.511719 Z M 433.371094 196.628906 "/>
<path style=" stroke:none;fill-rule:nonzero;fill:rgb(84.705882%,29.803922%,24.313725%);fill-opacity:1;" d="M 433.371094 196.628906 L 437.164063 196.503906 L 440.960938 196.378906 L 444.753906 196.253906 L 448.550781 196.128906 L 452.34375 196 L 459.9375 195.75 L 463.730469 195.625 L 467.527344 195.5 L 471.320313 195.371094 L 475.117188 195.246094 L 478.910156 195.121094 L 482.707031 194.996094 L 486.5 194.871094 L 490.296875 194.742188 L 494.09375 194.617188 L 497.886719 194.492188 L 501.683594 194.367188 L 505.476563 194.242188 L 509.273438 194.113281 L 513.066406 193.988281 L 516.863281 193.863281 L 520.65625 193.738281 L 524.453125 193.613281 L 528.246094 193.484375 L 535.839844 193.234375 L 539.632813 193.109375 L 543.429688 192.984375 L 543.230469 189.101563 L 542.898438 185.226563 L 542.425781 181.367188 L 541.820313 177.527344 L 541.078125 173.710938 L 540.203125 169.921875 L 539.191406 166.167969 L 538.050781 162.453125 L 536.777344 158.777344 L 535.378906 155.152344 L 533.851563 151.578125 L 532.199219 148.058594 L 530.421875 144.597656 L 528.523438 141.207031 L 526.507813 137.882813 L 524.375 134.628906 L 522.132813 131.457031 L 519.777344 128.363281 L 517.3125 125.355469 L 514.417969 127.8125 L 511.523438 130.273438 L 497.050781 142.558594 L 494.15625 145.019531 L 482.578125 154.847656 L 479.683594 157.308594 L 465.210938 169.59375 L 462.316406 172.054688 L 447.84375 184.339844 L 444.949219 186.800781 Z M 433.371094 196.628906 "/>
<path style=" stroke:none;fill-rule:nonzero;fill:rgb(68.235294%,18.823529%,36.078431%);fill-opacity:1;" d="M 433.371094 196.628906 L 435.378906 199.851563 L 437.390625 203.074219 L 441.40625 209.519531 L 443.417969 212.738281 L 445.425781 215.960938 L 447.4375 219.183594 L 451.453125 225.628906 L 453.464844 228.847656 L 455.472656 232.070313 L 457.484375 235.292969 L 459.492188 238.515625 L 461.503906 241.738281 L 463.511719 244.960938 L 465.519531 248.179688 L 467.53125 251.402344 L 469.539063 254.625 L 471.550781 257.847656 L 473.558594 261.070313 L 475.566406 264.289063 L 477.578125 267.511719 L 479.585938 270.734375 L 481.597656 273.957031 L 483.605469 277.179688 L 485.617188 280.402344 L 487.625 283.621094 L 489.632813 286.84375 L 491.644531 290.066406 L 494.867188 287.976563 L 498.015625 285.777344 L 501.082031 283.46875 L 504.070313 281.054688 L 506.972656 278.539063 L 509.78125 275.921875 L 512.5 273.210938 L 515.121094 270.40625 L 517.644531 267.507813 L 520.066406 264.527344 L 522.378906 261.464844 L 524.585938 258.320313 L 526.683594 255.101563 L 528.664063 251.8125 L 530.53125 248.457031 L 532.277344 245.035156 L 533.90625 241.558594 L 535.414063 238.027344 L 536.792969 234.441406 L 538.050781 230.8125 L 539.175781 227.140625 L 540.175781 223.433594 L 541.046875 219.695313 L 541.785156 215.925781 L 542.390625 212.132813 L 542.867188 208.320313 L 543.207031 204.496094 L 543.414063 200.664063 L 543.488281 196.824219 L 543.429688 192.984375 L 539.632813 193.109375 L 535.839844 193.234375 L 528.246094 193.484375 L 524.453125 193.613281 L 520.65625 193.738281 L 516.863281 193.863281 L 513.066406 193.988281 L 509.273438 194.113281 L 505.476563 194.242188 L 501.683594 194.367188 L 497.886719 194.492188 L 494.09375 194.617188 L 490.296875 194.742188 L 486.5 194.871094 L 482.707031 194.996094 L 478.910156 195.121094 L 475.117188 195.246094 L 471.320313 195.371094 L 467.527344 195.5 L 463.730469 195.625 L 459.9375 195.75 L 452.34375 196 L 448.550781 196.128906 L 444.753906 196.253906 L 440.960938 196.378906 L 437.164063 196.503906 Z M 433.371094 196.628906 "/>
<path style=" stroke:none;fill-rule:nonzero;fill:rgb(49.803922%,11.764706%,42.352941%);fill-opacity:1;" d="M 433.371094 196.628906 L 430.800781 199.425781 L 428.234375 202.226563 L 425.667969 205.023438 L 423.097656 207.820313 L 417.964844 213.414063 L 415.394531 216.210938 L 412.828125 219.007813 L 410.261719 221.808594 L 407.691406 224.605469 L 402.558594 230.199219 L 399.988281 232.996094 L 394.855469 238.589844 L 392.285156 241.390625 L 387.152344 246.984375 L 384.582031 249.78125 L 379.449219 255.375 L 376.878906 258.171875 L 374.3125 260.972656 L 371.746094 263.769531 L 369.175781 266.566406 L 364.042969 272.160156 L 361.472656 274.957031 L 358.90625 277.753906 L 361.726563 280.253906 L 364.628906 282.65625 L 367.609375 284.960938 L 370.671875 287.15625 L 373.804688 289.25 L 377.007813 291.234375 L 380.277344 293.105469 L 383.609375 294.863281 L 387 296.511719 L 390.441406 298.039063 L 393.9375 299.445313 L 397.476563 300.734375 L 401.0625 301.902344 L 404.679688 302.945313 L 408.335938 303.867188 L 412.019531 304.660156 L 415.726563 305.328125 L 419.457031 305.867188 L 423.199219 306.277344 L 426.957031 306.5625 L 430.722656 306.71875 L 434.488281 306.742188 L 438.257813 306.640625 L 442.015625 306.410156 L 445.765625 306.050781 L 449.503906 305.5625 L 453.21875 304.945313 L 456.914063 304.203125 L 460.582031 303.335938 L 464.214844 302.339844 L 467.8125 301.222656 L 471.371094 299.984375 L 474.886719 298.625 L 478.351563 297.144531 L 481.761719 295.546875 L 485.117188 293.832031 L 488.414063 292.003906 L 491.644531 290.066406 L 489.632813 286.84375 L 487.625 283.621094 L 485.617188 280.402344 L 483.605469 277.179688 L 481.597656 273.957031 L 479.585938 270.734375 L 477.578125 267.511719 L 475.566406 264.289063 L 473.558594 261.070313 L 471.550781 257.847656 L 469.539063 254.625 L 467.53125 251.402344 L 465.519531 248.179688 L 463.511719 244.960938 L 461.503906 241.738281 L 459.492188 238.515625 L 457.484375 235.292969 L 455.472656 232.070313 L 453.464844 228.847656 L 451.453125 225.628906 L 447.4375 219.183594 L 445.425781 215.960938 L 443.417969 212.738281 L 441.40625 209.519531 L 437.390625 203.074219 L 435.378906 199.851563 Z M 433.371094 196.628906 "/>
<path style=" stroke:none;fill-rule:nonzero;fill:rgb(31.372549%,5.490196%,42.352941%);fill-opacity:1;" d="M 433.371094 196.628906 L 429.574219 196.515625 L 425.777344 196.398438 L 421.984375 196.285156 L 418.1875 196.167969 L 414.390625 196.054688 L 410.597656 195.9375 L 406.800781 195.824219 L 403.007813 195.707031 L 399.210938 195.59375 L 395.414063 195.476563 L 391.621094 195.363281 L 387.824219 195.246094 L 384.027344 195.132813 L 380.234375 195.015625 L 376.4375 194.902344 L 372.640625 194.785156 L 368.847656 194.671875 L 365.050781 194.554688 L 361.257813 194.441406 L 357.460938 194.324219 L 353.664063 194.210938 L 349.871094 194.09375 L 346.074219 193.976563 L 342.277344 193.863281 L 338.484375 193.746094 L 334.6875 193.632813 L 330.890625 193.515625 L 327.097656 193.402344 L 323.300781 193.285156 L 323.25 197.066406 L 323.332031 200.847656 L 323.542969 204.625 L 323.878906 208.390625 L 324.347656 212.144531 L 324.945313 215.878906 L 325.671875 219.589844 L 326.523438 223.273438 L 327.5 226.925781 L 328.601563 230.542969 L 329.828125 234.121094 L 331.175781 237.652344 L 332.644531 241.136719 L 334.234375 244.570313 L 335.9375 247.945313 L 337.757813 251.261719 L 339.691406 254.511719 L 341.734375 257.695313 L 343.882813 260.804688 L 346.140625 263.839844 L 348.5 266.792969 L 350.957031 269.667969 L 353.515625 272.453125 L 356.164063 275.152344 L 358.90625 277.753906 L 361.472656 274.957031 L 364.042969 272.160156 L 369.175781 266.566406 L 371.746094 263.769531 L 374.3125 260.972656 L 376.878906 258.171875 L 379.449219 255.375 L 384.582031 249.78125 L 387.152344 246.984375 L 392.285156 241.390625 L 394.855469 238.589844 L 399.988281 232.996094 L 402.558594 230.199219 L 407.691406 224.605469 L 410.261719 221.808594 L 412.828125 219.007813 L 415.394531 216.210938 L 417.964844 213.414063 L 423.097656 207.820313 L 425.667969 205.023438 L 428.234375 202.226563 L 430.800781 199.425781 Z M 433.371094 196.628906 "/>
<path style=" stroke:none;fill-rule:nonzero;fill:rgb(11.764706%,4.705882%,26.666667%);fill-opacity:1;" d="M 433.371094 196.628906 L 428.128906 191.136719 L 425.507813 188.386719 L 422.882813 185.640625 L 420.261719 182.894531 L 417.640625 180.144531 L 409.777344 171.90625 L 407.15625 169.15625 L 401.914063 163.664063 L 399.292969 160.914063 L 394.050781 155.421875 L 391.429688 152.671875 L 386.1875 147.179688 L 383.566406 144.429688 L 375.703125 136.191406 L 373.082031 133.441406 L 370.457031 130.695313 L 367.835938 127.949219 L 365.214844 125.199219 L 359.972656 119.707031 L 357.351563 116.957031 L 354.699219 119.578125 L 352.136719 122.285156 L 349.667969 125.074219 L 347.292969 127.949219 L 345.019531 130.902344 L 342.84375 133.929688 L 340.773438 137.027344 L 338.8125 140.195313 L 336.957031 143.425781 L 335.210938 146.722656 L 333.578125 150.070313 L 332.058594 153.476563 L 330.65625 156.929688 L 329.371094 160.425781 L 328.207031 163.96875 L 327.160156 167.542969 L 326.238281 171.15625 L 325.4375 174.796875 L 324.761719 178.460938 L 324.207031 182.144531 L 323.78125 185.847656 L 323.476563 189.5625 L 323.300781 193.285156 L 327.097656 193.402344 L 330.890625 193.515625 L 334.6875 193.632813 L 338.484375 193.746094 L 342.277344 193.863281 L 346.074219 193.976563 L 349.871094 194.09375 L 353.664063 194.210938 L 357.460938 194.324219 L 361.257813 194.441406 L 365.050781 194.554688 L 368.847656 194.671875 L 372.640625 194.785156 L 376.4375 194.902344 L 380.234375 195.015625 L 384.027344 195.132813 L 387.824219 195.246094 L 391.621094 195.363281 L 395.414063 195.476563 L 399.210938 195.59375 L 403.007813 195.707031 L 406.800781 195.824219 L 410.597656 195.9375 L 414.390625 196.054688 L 418.1875 196.167969 L 421.984375 196.285156 L 425.777344 196.398438 L 429.574219 196.515625 Z M 433.371094 196.628906 "/>
<path style=" stroke:none;fill-rule:nonzero;fill:rgb(0%,0%,1.568627%);fill-opacity:1;" d="M 433.371094 196.628906 L 433.371094 86.511719 L 429.558594 86.578125 L 425.75 86.773438 L 421.949219 87.105469 L 418.164063 87.566406 L 414.394531 88.15625 L 410.652344 88.878906 L 406.933594 89.730469 L 403.25 90.710938 L 399.597656 91.816406 L 395.988281 93.050781 L 392.425781 94.40625 L 388.910156 95.886719 L 385.449219 97.484375 L 382.042969 99.203125 L 378.703125 101.039063 L 375.425781 102.988281 L 372.21875 105.050781 L 369.082031 107.226563 L 366.023438 109.503906 L 363.046875 111.886719 L 360.15625 114.375 L 357.351563 116.957031 L 359.972656 119.707031 L 365.214844 125.199219 L 367.835938 127.949219 L 370.457031 130.695313 L 373.082031 133.441406 L 375.703125 136.191406 L 383.566406 144.429688 L 386.1875 147.179688 L 391.429688 152.671875 L 394.050781 155.421875 L 399.292969 160.914063 L 401.914063 163.664063 L 407.15625 169.15625 L 409.777344 171.90625 L 417.640625 180.144531 L 420.261719 182.894531 L 422.882813 185.640625 L 425.507813 188.386719 L 428.128906 191.136719 Z M 433.371094 196.628906 "/>
</g>
</g>
</svg>
